<mxfile host="app.diagrams.net" modified="2021-04-15T11:23:01.648Z" agent="5.0 (Macintosh; Intel Mac OS X 11_1_0) AppleWebKit/537.36 (KHTML, like Gecko) Chrome/89.0.4389.114 Safari/537.36" etag="Qw-iDvM2CApw5TM7bdD6" version="14.6.0" type="github">
  <diagram name="Page-1" id="dd472eb7-4b8b-5cd9-a60b-b15522922e76">
    <mxGraphModel dx="946" dy="614" grid="1" gridSize="10" guides="1" tooltips="1" connect="1" arrows="1" fold="1" page="1" pageScale="1" pageWidth="1100" pageHeight="850" background="#ffffff" math="0" shadow="0">
      <root>
        <mxCell id="0" />
        <mxCell id="1" parent="0" />
        <mxCell id="X_xlx5UludOFC59zT2XY-1" value="" style="group" vertex="1" connectable="0" parent="1">
          <mxGeometry x="190" y="170" width="580" height="550" as="geometry" />
        </mxCell>
        <mxCell id="374e34682ed331ee-1" value="产品定位" style="ellipse;whiteSpace=wrap;html=1;rounded=0;shadow=0;dashed=0;comic=0;fontFamily=Verdana;fontSize=22;fontColor=#0069D1;fillColor=#f5f5f5;strokeColor=#666666;" parent="X_xlx5UludOFC59zT2XY-1" vertex="1">
          <mxGeometry x="119.41176470588235" y="113.23529411764706" width="341.1764705882353" height="323.5294117647059" as="geometry" />
        </mxCell>
        <mxCell id="45236fa5f4b8e91a-1" value="减少" style="ellipse;whiteSpace=wrap;html=1;rounded=0;shadow=0;dashed=0;comic=0;fontFamily=Verdana;fontSize=22;fontColor=#0069D1;fillColor=#f5f5f5;strokeColor=#666666;" parent="X_xlx5UludOFC59zT2XY-1" vertex="1">
          <mxGeometry x="221.76470588235293" width="136.47058823529412" height="129.41176470588235" as="geometry" />
        </mxCell>
        <mxCell id="45236fa5f4b8e91a-2" value="增加" style="ellipse;whiteSpace=wrap;html=1;rounded=0;shadow=0;dashed=0;comic=0;fontFamily=Verdana;fontSize=22;fontColor=#0069D1;fillColor=#f5f5f5;strokeColor=#666666;" parent="X_xlx5UludOFC59zT2XY-1" vertex="1">
          <mxGeometry x="221.76470588235293" y="420.5882352941177" width="136.47058823529412" height="129.41176470588235" as="geometry" />
        </mxCell>
        <mxCell id="45236fa5f4b8e91a-3" value="创造" style="ellipse;whiteSpace=wrap;html=1;rounded=0;shadow=0;dashed=0;comic=0;fontFamily=Verdana;fontSize=22;fontColor=#0069D1;fillColor=#f5f5f5;strokeColor=#666666;" parent="X_xlx5UludOFC59zT2XY-1" vertex="1">
          <mxGeometry x="443.52941176470586" y="210.29411764705884" width="136.47058823529412" height="129.41176470588235" as="geometry" />
        </mxCell>
        <mxCell id="45236fa5f4b8e91a-4" value="剔除" style="ellipse;whiteSpace=wrap;html=1;rounded=0;shadow=0;dashed=0;comic=0;fontFamily=Verdana;fontSize=22;fontColor=#0069D1;fillColor=#f5f5f5;strokeColor=#666666;" parent="X_xlx5UludOFC59zT2XY-1" vertex="1">
          <mxGeometry y="210.29411764705884" width="136.47058823529412" height="129.41176470588235" as="geometry" />
        </mxCell>
      </root>
    </mxGraphModel>
  </diagram>
</mxfile>
